<svg id="Capa_1" data-name="Capa 1" xmlns="http://www.w3.org/2000/svg" viewBox="0 0 18 18"><path d="M15.07,18a15,15,0,0,1-5.86-1.18,15.08,15.08,0,0,1-8-8A15,15,0,0,1,0,2.93,2.18,2.18,0,0,1,1.6.84L4.38.08A2.16,2.16,0,0,1,7,1.34L7,1.5l1.2,2.87a2.15,2.15,0,0,1-.63,2.51l-1,.82a9.77,9.77,0,0,0,3.71,3.7l.81-1a2.18,2.18,0,0,1,2.51-.63l3,1.27a2.16,2.16,0,0,1,1.25,2.57l-.76,2.78A2.18,2.18,0,0,1,15.07,18ZM5,1.81H4.86l-2.79.76a.37.37,0,0,0-.26.35A13.28,13.28,0,0,0,15.07,16.19a.36.36,0,0,0,.35-.27l.76-2.78a.34.34,0,0,0-.21-.42h0l-3-1.27a.36.36,0,0,0-.41.1h0l-1.73,2.1-.64-.3A11.61,11.61,0,0,1,4.64,7.85l-.3-.64L6.45,5.49a.37.37,0,0,0,.1-.42L5.27,2A.36.36,0,0,0,5,1.81Z"/></svg>